# xmcd CD database file
#
# Track frame offsets:
#	150
#	13779
#	28237
#	46983
#	62254
#	75702
#	98396
#	120317
#	130778
#	149876
#	163053
#
# Disc length: 2441 seconds
#
# Revision: 0
# Processed by: cddbd v1.5.2PL0 Copyright (c) Steve Scherf et al.
# Submitted via: CDex 1.51
#
DISCID=8a09870b
DTITLE=Dead Men Sway - Boombabba
DYEAR=2006
DGENRE=Blues
TTITLE0=The Mortified
TTITLE1=Godspeed
TTITLE2=Marco Polo
TTITLE3=Bastardville
TTITLE4=M.R.S.A.
TTITLE5=Wrath Of Adamo
TTITLE6=Quantum Physics
TTITLE7=Sway
TTITLE8=Bad River
TTITLE9=Paul Bunyan
TTITLE10=I Bleed Today
EXTD=YEAR: 2006
EXTT0=
EXTT1=
EXTT2=
EXTT3=
EXTT4=
EXTT5=
EXTT6=
EXTT7=
EXTT8=
EXTT9=
EXTT10=
PLAYORDER=
